<?xml version="1.0" standalone="no"?>
<!DOCTYPE svg PUBLIC "-//W3C//DTD SVG 20010904//EN"
 "http://www.w3.org/TR/2001/REC-SVG-20010904/DTD/svg10.dtd">
<svg version="1.0" xmlns="http://www.w3.org/2000/svg"
 width="1920.000000pt" height="1080.000000pt" viewBox="0 0 1920.000000 1080.000000"
 preserveAspectRatio="xMidYMid meet">

<g transform="translate(0.000000,1080.000000) scale(0.100000,-0.100000)"
fill="#000000" stroke="none">
<path d="M3550 8279 c-86 -11 -213 -39 -206 -46 3 -3 45 -9 93 -14 371 -38
679 -231 819 -514 61 -123 84 -215 91 -362 4 -82 10 -123 17 -123 21 0 160 40
285 82 l124 42 -6 90 c-20 305 -190 566 -469 715 -205 111 -499 162 -748 130z"/>
<path d="M11025 7813 c-149 -14 -319 -81 -427 -168 -101 -81 -191 -220 -237
-365 -64 -203 -54 -520 22 -708 76 -190 226 -344 403 -416 167 -68 402 -75
573 -17 254 86 418 266 493 543 20 74 23 105 22 278 -1 229 -14 295 -91 450
-39 79 -63 110 -138 186 -73 74 -106 98 -175 132 -47 23 -119 51 -160 61 -78
19 -215 31 -285 24z m206 -333 c122 -38 205 -127 256 -271 36 -101 45 -316 18
-435 -54 -245 -217 -378 -442 -361 -182 14 -312 132 -363 333 -28 107 -28 310
-1 416 46 178 149 293 296 329 61 14 172 9 236 -11z"/>
<path d="M6450 7645 l0 -145 255 0 255 0 0 -690 0 -690 175 0 175 0 0 690 0
690 260 0 260 0 0 145 0 145 -690 0 -690 0 0 -145z"/>
<path d="M7960 7780 c0 -8 425 -1505 466 -1642 5 -16 22 -18 178 -18 l173 0
147 508 c81 279 152 524 158 545 6 20 15 37 19 37 4 0 14 -21 21 -47 8 -27 79
-272 159 -546 l144 -497 174 2 174 3 237 830 237 830 -190 3 c-104 1 -191 1
-193 -1 -2 -2 -65 -262 -140 -578 -75 -316 -138 -576 -140 -578 -2 -2 -6 -2
-9 1 -5 5 -305 1141 -305 1154 0 2 -75 4 -168 4 l-167 0 -149 -567 c-82 -313
-152 -575 -157 -583 -7 -13 -8 -13 -13 0 -3 8 -64 263 -136 565 -72 303 -133
558 -136 568 -5 15 -23 17 -195 17 -121 0 -189 -4 -189 -10z"/>
<path d="M3303 6858 c-27 -13 -43 -56 -43 -114 0 -55 15 -89 47 -103 34 -16
47 -14 77 10 24 19 26 26 26 99 0 73 -2 80 -26 99 -29 23 -48 25 -81 9z"/>
<path d="M4017 6850 c-25 -20 -27 -26 -27 -100 0 -73 2 -80 26 -99 33 -26 65
-27 95 -2 22 17 24 27 24 100 0 89 -9 106 -60 117 -22 4 -38 0 -58 -16z"/>
<path d="M4755 5644 c-482 -90 -552 -106 -567 -125 -10 -11 -18 -31 -18 -44 0
-34 37 -75 68 -75 15 0 276 46 580 102 423 78 557 106 572 120 27 25 26 82 0
108 -12 12 -32 20 -52 19 -18 -1 -280 -48 -583 -105z"/>
<path d="M6460 4896 l0 -836 175 0 175 0 0 295 0 296 131 -3 131 -3 157 -292
156 -293 192 0 c106 0 193 2 193 3 0 3 -184 342 -311 573 l-39 72 54 30 c111
63 199 184 225 310 16 76 14 228 -4 297 -46 174 -164 295 -350 356 -68 23 -83
23 -477 27 l-408 3 0 -835z m724 530 c101 -31 156 -102 164 -216 6 -91 -11
-146 -62 -196 -61 -62 -113 -74 -313 -74 l-163 0 0 250 0 250 163 0 c113 0
179 -4 211 -14z"/>
<path d="M7970 4895 l0 -835 560 0 560 0 0 145 0 145 -385 0 -385 0 0 200 0
200 355 0 355 0 0 145 0 145 -355 0 -355 0 0 200 0 200 385 0 385 0 0 145 0
145 -560 0 -560 0 0 -835z"/>
<path d="M9837 5658 c-13 -40 -142 -413 -286 -829 -143 -416 -261 -759 -261
-763 0 -3 84 -5 187 -4 l187 3 60 187 61 188 304 -3 305 -2 60 -187 61 -187
188 -1 c103 0 187 2 187 5 0 3 -118 346 -261 763 -144 416 -273 790 -286 830
l-25 72 -228 0 -228 0 -25 -72z m277 -355 c8 -27 50 -158 94 -293 44 -135 83
-255 86 -267 l7 -23 -211 0 -211 0 7 23 c3 12 42 132 86 267 44 135 86 266 94
293 9 26 19 47 24 47 5 0 15 -21 24 -47z"/>
<path d="M11100 4895 l0 -837 378 4 c347 4 383 6 457 26 286 77 476 271 541
549 55 238 25 528 -74 718 -56 107 -183 230 -292 284 -165 81 -184 84 -622 88
l-388 4 0 -836z m696 526 c139 -27 235 -93 293 -200 44 -84 61 -172 61 -326 1
-323 -112 -482 -372 -525 -35 -5 -123 -10 -195 -10 l-133 0 0 535 0 535 149 0
c81 0 170 -4 197 -9z"/>
<path d="M12780 4895 l0 -835 560 0 560 0 0 145 0 145 -385 0 -385 0 0 200 0
200 355 0 355 0 0 145 0 145 -355 0 -355 0 0 200 0 200 385 0 385 0 0 145 0
145 -560 0 -560 0 0 -835z"/>
<path d="M14190 4896 l0 -836 175 0 175 0 0 295 0 296 131 -3 131 -3 157 -292
156 -293 192 0 c106 0 193 2 193 3 0 3 -184 342 -311 573 l-39 72 54 30 c111
63 199 184 225 310 16 76 14 228 -4 297 -46 174 -164 295 -350 356 -68 23 -83
23 -477 27 l-408 3 0 -835z m724 530 c101 -31 156 -102 164 -216 6 -91 -11
-146 -62 -196 -61 -62 -113 -74 -313 -74 l-163 0 0 250 0 250 163 0 c113 0
179 -4 211 -14z"/>
<path d="M5025 5285 c-5 -3 -192 -38 -415 -79 -351 -65 -407 -78 -422 -97 -38
-45 -4 -119 54 -119 17 0 216 34 442 76 445 82 456 86 456 146 0 53 -63 93
-115 73z"/>
<path d="M2331 4856 c-30 -32 -26 -82 9 -107 36 -25 853 -175 889 -163 14 5
32 22 40 38 12 25 11 33 -2 61 -13 28 -24 35 -64 43 -111 24 -811 152 -830
152 -11 0 -30 -11 -42 -24z"/>
<path d="M4605 4796 c-209 -40 -390 -77 -402 -84 -55 -30 -30 -124 35 -130 26
-3 759 127 815 144 9 3 24 19 33 36 28 54 -10 110 -73 107 -15 -1 -199 -34
-408 -73z"/>
<path d="M2336 4449 c-55 -43 -23 -119 56 -132 18 -4 208 -39 421 -78 420 -78
430 -78 455 -26 18 37 1 81 -36 96 -26 10 -827 161 -856 161 -7 0 -25 -9 -40
-21z"/>
<path d="M2101 4074 c-27 -35 -27 -69 2 -97 19 -19 97 -36 560 -121 580 -107
579 -107 605 -53 18 37 1 81 -36 96 -32 12 -1050 201 -1086 201 -15 0 -33 -11
-45 -26z"/>
</g>
</svg>
